<svg id="Layer_1" data-name="Layer 1" xmlns="http://www.w3.org/2000/svg" viewBox="0 0 500 500"><defs><style>.cls-1{fill:#10099f;}</style></defs><path class="cls-1" d="M214.18,452.7a21.66,21.66,0,0,1-7.54-2.72l1.18-6.84a14.55,14.55,0,0,0,6.85,3.06c2.67.46,4.53-.18,4.79-1.64S218.15,442,215,440c-4.57-2.79-7.57-5.44-6.68-10.62.93-5.39,5.54-7.93,12.79-6.68a24.47,24.47,0,0,1,8.55,3.1l-1.22,7.13a19,19,0,0,0-6.53-3.29,15.47,15.47,0,0,0-2.3-.44c-2.41-.25-3.86.17-4.07,1.38-.27,1.54,1.42,2.62,4.76,4.58,4.57,2.7,7.38,5.27,6.46,10.62S220.82,453.85,214.18,452.7Z"/><path class="cls-1" d="M195.62,417l-9.84,27.9-7.09-2.5,9.83-27.9Z"/><path class="cls-1" d="M146,427.44a22.06,22.06,0,0,1-7.24-6.45l3.43-5.95a20.55,20.55,0,0,0,6.67,6.12c4.91,2.83,9.66,1,11.94-2.94a8.25,8.25,0,0,0-3.09-11.69,13.71,13.71,0,0,0-2.85-1.21l-3.65,6.34L145,408.07l6.11-10.62a24.23,24.23,0,0,1,10,3.21c8.29,4.78,10.56,13.86,6.25,21.33S154,432,146,427.44Z"/><path class="cls-1" d="M139.69,386.4l-19.2,22.53-5.72-4.88L134,381.52Z"/><path class="cls-1" d="M122,370,99.46,389.2l-4.87-5.73,17.73-15.07-6.92-8.14,4.83-4.1Z"/><path class="cls-1" d="M102.18,344.32,76.48,359l-3.73-6.53L93,340.93l-5.3-9.28,5.5-3.14Z"/><path class="cls-1" d="M59.12,324.91l-2.28-7.17,17-5.39c3.33-1.06,4.69-3.43,3.64-6.76s-3.53-4.45-6.86-3.39l-17,5.39-2.29-7.21,17.76-5.64c6.62-2.1,12.44,1,14.9,8.77s-.5,13.66-7.12,15.76Z"/><path class="cls-1" d="M46.53,277.56v-.16l12.24-15.16L44.83,248.6v-.2l29.94-1.75.43,7.22-15,.88,1.71,1.79c1.88,1.74,3.75,3.44,5.58,5.19-1.62,1.94-3.28,3.85-4.93,5.8l-1.49,2,15-.88.42,7.14Z"/><path class="cls-1" d="M51.76,199.68l2.32-7.15L71,198c3.32,1.08,5.81-.05,6.89-3.37s-.28-5.67-3.6-6.74l-16.91-5.5,2.34-7.19L77.4,181c6.6,2.14,9.51,8.06,7,15.79s-8.35,10.8-15,8.65Z"/><path class="cls-1" d="M69.21,153.88l19.23-5.83c1-.35,2-.63,3-1l-12.7-7.82,3.88-6.3,25.55,15.73-.15.25-19.33,5.91-2.93,1,12.7,7.83-3.86,6.26L69,154.15Z"/><path class="cls-1" d="M118.36,135.8,96.49,115.88l5.06-5.56,21.87,19.92Z"/><path class="cls-1" d="M121,92.17l8,4.22c2.65,1.44,5.24,2.82,7.09,4.1-.23-1.06-1.52-5.81-2-8L132,83.74l6.54-5,6.19,33-.26.2L114.38,97.17Z"/><path class="cls-1" d="M155.29,69.38l17.57-8.21,2.68,5.73-10.76,5L167,76.69l9.19-4.3,2.54,5.44-9.19,4.3,2.4,5.13L183.27,82,186,87.7l-18.13,8.49Z"/><path class="cls-1" d="M199.89,82.88l-6.72-28.81,10.48-2.45c6.88-1.61,12.42.6,13.93,7.09a8.78,8.78,0,0,1-3.33,9.55l8.29,9.33-7.64,1.79L208,71l-3.2.75,2.21,9.48Zm3.59-17,3.68-.86c2.2-.51,3.64-1.95,3-4.59s-2.57-3.24-4.77-2.72l-3.64.85Z"/><path class="cls-1" d="M245.93,45.77a22,22,0,0,1,7.92,1.2l.17,6.94a14.7,14.7,0,0,0-7.32-1.67c-2.71.07-4.41,1.06-4.37,2.53s1.78,2.3,5.26,3.61c5,1.85,8.48,3.86,8.61,9.12.13,5.46-3.89,8.85-11.24,9a24.33,24.33,0,0,1-9-1.39l-.17-7.22a19.07,19.07,0,0,0,7,2,16.54,16.54,0,0,0,2.34,0c2.42-.23,3.76-.92,3.73-2.15,0-1.56-1.91-2.29-5.55-3.56-5-1.77-8.27-3.74-8.4-9.16S239.2,45.93,245.93,45.77Z"/><path class="cls-1" d="M271.11,77.06l4.11-29.28,7.44,1-4.11,29.28Z"/><path class="cls-1" d="M301.54,52.44l22.23,7.11-1.93,6-7.51-2.41-7.09,22.16L300,83l7.08-22.16-7.51-2.4Z"/><path class="cls-1" d="M324.72,91.79l27.74-18.6.32.18-2.27,33.32-6.8-3.93.45-5-8.61-5-4,2.89Zm20.12.57c.28-2.54.71-5.66,1.12-7.51-.85.64-4.34,3.47-6,4.7Z"/><path class="cls-1" d="M378.83,91.37,396.13,107l-4.24,4.69L386,106.43l-15.61,17.24-5.61-5.08,15.61-17.24-5.84-5.29Z"/><path class="cls-1" d="M385.42,139.76l23.25-18.29,4.65,5.91-23.25,18.29Z"/><path class="cls-1" d="M430.68,153.32a21.73,21.73,0,0,1,2.56,7.59l-6.09,3.33a14.49,14.49,0,0,0-1.87-7.26c-1.3-2.38-3-3.44-4.25-2.73s-1.23,2.63-.8,6.33c.66,5.31.46,9.31-4.16,11.83-4.79,2.63-9.65.6-13.18-5.85a24.48,24.48,0,0,1-2.89-8.63l6.34-3.47a18.9,18.9,0,0,0,1.48,7.15,15,15,0,0,0,1.09,2.08c1.31,2,2.54,2.92,3.62,2.33,1.37-.75,1.16-2.75.62-6.57-.73-5.27-.47-9.07,4.29-11.67S427.45,147.41,430.68,153.32Z"/><path class="cls-1" d="M420.74,211.54l29-6,1.53,7.36-29,6Z"/><path class="cls-1" d="M455.16,243.87a21.83,21.83,0,0,1-1.1,7.94l-6.94.26a14.6,14.6,0,0,0,1.58-7.34c-.1-2.71-1.11-4.4-2.59-4.34s-2.28,1.81-3.54,5.31c-1.79,5-3.76,8.53-9,8.72-5.46.21-8.9-3.78-9.18-11.13a24.55,24.55,0,0,1,1.27-9l7.23-.27a19,19,0,0,0-1.88,7.06,15,15,0,0,0,.05,2.34c.25,2.42,1,3.75,2.19,3.71,1.56-.06,2.28-1.94,3.5-5.6,1.7-5,3.63-8.32,9.05-8.52S454.91,237.14,455.16,243.87Z"/><path class="cls-1" d="M424.33,269.32l29.25,4.43-1.12,7.43-23-3.48-1.6,10.56-6.25-.94Z"/><path class="cls-1" d="M419.31,298.1l22.94,24.29-.13.35L408.87,326l2.75-7.35,5-.38,3.48-9.31-3.51-3.51ZM422.07,318c2.55-.14,5.7-.23,7.6-.14-.78-.73-4.15-3.7-5.63-5.13Z"/><path class="cls-1" d="M427.38,354.49,408,359.57c-1,.32-2.05.56-3,.9l12.39,8.3-4.12,6.14-24.91-16.69.16-.24L408,352.82l3-.88-12.39-8.31,4.1-6.1,24.91,16.69Z"/><path class="cls-1" d="M378.07,370.79l20.07,21.74-7.27,6.72c-7.61,7-16.56,6.79-22.36.51s-5.33-15.23,2.25-22.22Zm-3,11.34c-4.4,4.07-4.14,9.09-1,12.47s8.1,4,12.54-.06l1.69-1.56-11.48-12.44Z"/><path class="cls-1" d="M346.1,397.14l15.71,25.07-6.38,4-15.71-25.07Z"/><path class="cls-1" d="M328.32,408l-2.66,33.31-.34.14L300.61,419l7.3-2.88,3.61,3.43,9.25-3.65.25-5Zm-12.95,15.42c1.81,1.8,4,4.07,5.19,5.55,0-1.07,0-5.56,0-7.62Z"/><path class="cls-1" d="M292.43,451.11l-19.13,3.13-1-6.24L284,446.08l-.85-5.19-10,1.64-1-5.92,10-1.64-.91-5.59-12.33,2-1-6.24,19.74-3.23Z"/><path class="cls-1" d="M169,312.59c2.72-.19,1-7.27,3.35-8.62,2.6-1.48,7.63-2.88,8.92,1.52,2.54-.24,6-1.49,6.91-2.54,7.23-8.21-1.46-14.88-2.73-15.62-2-1.18-7.5-2.92-8.51-.26.65,1.3,2.79.49,4.27,1a8,8,0,0,1,3.83,2.81c.94,1.59.62,4-1.62,4.18-1.24.13-4.5-1.8-7.72-1.88-6-.14-16.07,3.6-18.15-1.6-1.42-3.55,4.76-22.36,7.71-30.06.44-1.13,2-4.49.58-4.66a.83.83,0,0,0-.86.32c-1.55,3.7-11.78,30.73-12.86,35.27-.92,3.84-.73,6.92,1,8.87s4.07,2,6.72,1.79c4.47-.34,6.7.45,7.83,4C168.34,309.05,168.48,310.38,169,312.59Z"/><path class="cls-1" d="M182,339.41c2.72-2.88,10.19-4.39,11.89-9.7.14-.45.09-2.38-.78-2.51-1.29-.19-1.27,1.15-2.42,1.59-2.37.89-5,0-8.15,0-4.43-.05-9.29.66-9.53,3.92,2.91,2.63,6.58,2.85,7.1,9.17C181.41,341.9,181.47,340.4,182,339.41Z"/><path class="cls-1" d="M180.87,262.66c-2.26,3.61,3.26,5.38,5.61,6.31,3.84,1.52,8.62-.71,11.08-3.73a15.79,15.79,0,0,0,1.6-3.25c.36-1.16.35-1.65-.45-2.07l-2.81-1.41C192,260.89,186.76,265.61,180.87,262.66Z"/><path class="cls-1" d="M182.41,322.71c2.93,0,5.48,1.67,8.06,1.62,2-.05,6.82-.68,7.72-5.08a35,35,0,0,1-14.91-2.82c-2-.82-4.11-2.92-6.12-2.37-2.55.69-5.33,3.63-9.86,3.52.48,2.68,2.55,5.72,5.52,6.4C176,324.71,179.08,322.73,182.41,322.71Z"/><path class="cls-1" d="M174.24,249.14a11.26,11.26,0,0,0,.59,1.64c3.07-1,6.71.32,6.17,4.22a2.32,2.32,0,0,1-1.34,1.9c.63,1.88.51,2,2,3.15a2.5,2.5,0,0,1,.07-1.61c1.46-.87,3.35-1.52,3.9-4.12,2.8,1.82,1.76,4.86,1.3,5.9a14.13,14.13,0,0,0,6.92-3.18c-3.76-1.58-6.87-7.58-12-8.8C179.55,247.67,176.26,247.66,174.24,249.14Z"/><path class="cls-1" d="M259.11,97.81Q253,97.45,247,97.56h-.68c-1.83.05-3.67.12-5.49.23-.44,0-.87.06-1.31.09-1.74.11-3.49.25-5.23.42l-.9.11c-3,.32-6,.75-9,1.25-.92.16-1.84.3-2.75.47-1.15.21-2.28.46-3.41.7s-2.32.49-3.47.77-2.11.51-3.16.78c-1.22.32-2.44.65-3.65,1-1,.28-2,.57-3,.87-1.26.39-2.49.81-3.73,1.22-.95.32-1.9.62-2.84,1-1.4.5-2.79,1-4.17,1.59-1.94.77-3.88,1.57-5.79,2.42-.63.28-1.27.55-1.9.84q-2.22,1-4.41,2.12l-1.33.66q-2.4,1.22-4.76,2.53l-.58.32q-5.26,3-10.36,6.35a4,4,0,0,0-1.45,1.85,3.81,3.81,0,0,0,.29,3.32l12.87,21.28c-20.31,18-36.81,24.26-47.53,31.05-.95,3.87,5,14.86,21.68,7-15.16,12.24-25.95,29-25.8,33.48.12,3.56,1.27,4.6,11,6.48,6.19,1.19,14.28,2.16,17.52,7.54,6.71,11.13,11.89,13.9,17.54,12.68a9.1,9.1,0,0,0,3.42-1.93c8.71-6.5,14.19,0,18.79,4.07,4.05,3.56,4.34,4.65,9.64,6.68,6.86,2.64,17-2,24.82.36.91.27,1.88.29,1.95-1.8,0-.64-.08-1-1.78-1.89-14.76-3.84-27.76-17.72-41.62-19.05-6.3-.62-9.29,2.42-14.09,4.24-3.08,1.17-9.58,2.46-10.69-3.81-.12-8,6.92-12.73,12.42-12.8,12.8-.17,24.26-.78,32.1-2,0,0,5.33-.81,5.65-1,9-.67,27.24,12.89,34.83,23.7,12,17.12,31.87,35,47.8,34.61-17.38,4.77-33.75-1-46.44-21.1a5.18,5.18,0,0,0-1.37-1.35c3.27,6.77,4.31,15.72,3.2,29.41-.09,3.73.56,5.75,3.5,9.76,16.05,21.88.18,38.95.09,39.07-14.55,14.47-44.13,20.29-47.38,21.28-24.49,7.45-23.81-8.2-24.55-9.05s-2-.73-2.24,0c-.72,2-1,6.88-.52,8.34,1.12,3.35,1.81,5.22,7.33,8,5,2.52,14.35,2.32,18.31,2,10.43-.91,23.07-2,35.41-5.43,10.87-3,17.5-4.33,6.4,11.85-9.08,10.23-29.16,19.65-40.84,26.94a154.42,154.42,0,0,0,23.13,5.07c34.94-15.64,37.51-71.89,44.66-83.47,3.29-5.33,17.4-5.1,24-3.13l-.31,2.45c-3.19,18.38,3.62,23.93.23,33.57-11.12,31.61-23.26,44.12-39.65,52a152.94,152.94,0,0,0,28.21-4,191.76,191.76,0,0,0,12.74-20.73,108.71,108.71,0,0,0,11.84-39.46c4.62,2.63,9.12,5.44,13.48,8.49,4.27,10.34,2.79,25.13-1.62,37.86,2.44-1.33,5.37-3,7.79-4.48.75-.46,1.51-.93,2.25-1.41a62.54,62.54,0,0,0,4.51-22l3,2.37a117.79,117.79,0,0,0,9.76,6.89,153.35,153.35,0,0,0,18-18.22c-23.3-8,3-28.23-33.46-36.84,37.94,2.8,25.59,20,37.94,31.25a154.32,154.32,0,0,0,12.82-19.76.34.34,0,0,1,0-.1,151.56,151.56,0,0,0,18.12-63.65C407.8,175.42,343.35,102.82,259.11,97.81ZM137.55,218.74c-2.62-1.21-.13-4.77,5.31-12.23C182.62,152,288.66,182.08,295.42,181c5-.79-67.67-38.32-121.23-10.07-9.32,4.92-31.38,14-32.77,10.06,0,0,25.88-13,37.22-23.22a15.07,15.07,0,0,1,2.26-1.65c1.69-1.32,3.41-2.62,5.17-3.86a117.68,117.68,0,0,1,67.78-16.51c64.23,3.82,113.44,58.16,109.7,121.14a114.3,114.3,0,0,1-1.46,12.45,76.25,76.25,0,0,1-5.91-8.29s8.39-101.65-99.09-117.9c-19.57-3-40.29.19-54.56,8.51a124.17,124.17,0,0,0,13.24-1.07c49.66-8.47,133.85,21.15,130.75,98.22-.1,2.52-32.77-49.67-84.42-59.36C204.18,178.6,177.17,195,177.17,195s38.35-4.91,79.42,3.28c47.1,9.39,83.07,46.25,101.8,82.23-1.34,2.6-16.74,1.28-20.56-3.4-12.1-14.85-44.2-53.55-86-63.48C166.59,193.38,140.88,220.29,137.55,218.74ZM296.9,257.18c-14.84,1.24-24.17-27.31-50.55-35.68C277.77,223.45,284.65,248.77,296.9,257.18Zm-67.58-36.69c25.71,1.33,55.25,45.79,68.54,49C278.77,271,249.51,227.6,229.32,220.49ZM253.56,270c16.87,35.3,32.17,8.92,46.26,35.59C287.59,295.69,257.47,315.71,253.56,270Zm97.59,85.07c-15.85-22.66-45.78-18.46-41.77-42.77C315.11,328.59,343.35,312.71,351.15,355.1ZM335,318c-64.41-26.89-12.87-46.51-35.17-67.67C331.72,276,291.71,294,335,318Zm36.79,3.78c-5.55-29.13-56.57-10.2-49.26-48.58C331.23,307.7,377.13,270.52,371.74,321.8Zm23.48-62.59a144.33,144.33,0,0,1-12.77,51.5c-2.8-11.21-7.86-22.58-15.54-34.39a119.63,119.63,0,0,0,2.72-19C373.57,191,321.79,133.84,254.2,129.82a123.72,123.72,0,0,0-69.7,16.45l-.83.15L172.3,127.63a144,144,0,0,1,86.36-22.24C338.72,110.15,400,179.15,395.22,259.21Z"/></svg>